<?xml version="1.0" standalone="no"?>
<!DOCTYPE svg PUBLIC "-//W3C//DTD SVG 20010904//EN"
 "http://www.w3.org/TR/2001/REC-SVG-20010904/DTD/svg10.dtd">
<svg version="1.0" xmlns="http://www.w3.org/2000/svg"
 width="1000.000000pt" height="1000.000000pt" viewBox="0 0 1000.000000 1000.000000"
 preserveAspectRatio="xMidYMid meet">
<metadata>
Created by potrace 1.14, written by Peter Selinger 2001-2017
</metadata>
<g transform="translate(0.000000,1000.000000) scale(0.100000,-0.100000)"
fill="#000000" stroke="none">
<path d="M4620 9373 c-19 -1 -93 -8 -165 -14 -663 -56 -1324 -256 -1861 -564
-682 -391 -1273 -984 -1645 -1650 -270 -484 -436 -1021 -506 -1645 -25 -221
-25 -840 0 -1058 110 -960 458 -1726 1100 -2416 283 -305 685 -622 1043 -825
534 -301 1121 -480 1814 -553 170 -18 877 -18 1060 0 656 64 1207 213 1725
467 730 358 1373 930 1795 1601 510 809 713 1828 580 2899 -116 922 -500 1722
-1150 2389 -798 820 -1803 1277 -3005 1366 -126 9 -698 12 -785 3z m811 -1179
c776 -76 1450 -399 2003 -959 491 -497 775 -1074 871 -1770 23 -160 31 -580
16 -756 -50 -573 -212 -1053 -503 -1489 -457 -687 -1130 -1165 -1913 -1359
-502 -125 -1109 -139 -1635 -40 -704 133 -1322 485 -1807 1028 -571 639 -832
1465 -763 2406 60 799 344 1442 879 1988 90 92 168 167 172 167 5 0 9 -702 9
-1560 l0 -1560 1070 0 1070 0 79 -62 c152 -120 391 -251 691 -378 339 -144
485 -248 524 -373 24 -76 16 -134 -27 -206 -38 -64 -91 -105 -161 -127 -119
-36 -393 -35 -571 1 -188 38 -473 160 -742 318 l-113 65 0 -471 0 -472 110
-44 c237 -93 431 -150 685 -200 195 -39 328 -51 546 -51 504 0 890 137 1151
408 96 100 144 170 198 285 125 267 127 648 5 898 -50 103 -117 189 -230 297
-159 152 -356 272 -843 512 -476 235 -532 282 -532 445 0 43 6 90 14 110 22
51 90 111 154 135 153 58 452 40 697 -41 124 -41 365 -163 524 -264 73 -47
135 -85 137 -85 2 0 4 201 4 448 l0 447 -33 19 c-68 39 -267 124 -372 159
-133 44 -324 91 -460 113 -133 21 -540 30 -671 15 -413 -49 -745 -219 -929
-476 -90 -126 -165 -313 -181 -454 l-7 -61 -313 0 -314 0 2 1432 3 1433 130
33 c427 108 909 142 1376 96z"/>
</g>
</svg>
